PathFileType	4	(X/Y/Z)	14_2_100_p1_0-367_filt_butterworth.trc
DataRate	CameraRate	NumFrames	NumMarkers	Units	OrigDataRate	OrigDataStartFrame	OrigNumFrames
60.0	60.0	6	27	m	60.0	45	367
Frame#	Time	RHip			RKnee			RAnkle			RBigToe			RSmallToe			RHeel			LHip			LKnee			LAnkle			LBigToe			LSmallToe			LHeel			Neck			Head			Nose			RShoulder			RElbow			RWrist			RThumb			RIndex			RPinky			LShoulder			LElbow			LWrist			LThumb			LIndex			LPinky			
		X1	Y1	Z1	X2	Y2	Z2	X3	Y3	Z3	X4	Y4	Z4	X5	Y5	Z5	X6	Y6	Z6	X7	Y7	Z7	X8	Y8	Z8	X9	Y9	Z9	X10	Y10	Z10	X11	Y11	Z11	X12	Y12	Z12	X13	Y13	Z13	X14	Y14	Z14	X15	Y15	Z15	X16	Y16	Z16	X17	Y17	Z17	X18	Y18	Z18	X19	Y19	Z19	X20	Y20	Z20	X21	Y21	Z21	X22	Y22	Z22	X23	Y23	Z23	X24	Y24	Z24	X25	Y25	Z25	X26	Y26	Z26	X27	Y27	Z27	
45	0.75	0.2933385910329872	0.6087839251807693	0.30021798904695784	0.296634203543815	0.7547770533376035	0.709039214881948	0.2845048002383926	0.953373353717085	1.1321449382619828	0.2728063567586192	0.7324611662824781	1.1699127812463241	0.33253819585412825	0.7541109472729439	1.1722139149320938	0.2742937516576863	1.0031127494331602	1.1835282933247704	0.07410197069426269	0.6350354098296468	0.2917692021671361	0.0898464849536414	0.7692830450628866	0.702226416178416	0.10604264855601572	0.8843185391741356	1.1250419394982385	0.11907778135433363	0.6932412764668086	1.1423046284616585	0.0704376472201676	0.7302156604275235	1.150984530613235	0.12781597369290223	0.9615957446167991	1.169468999737921	0.21321426788551992	0.4571758807256661	-0.3047394004932994	0.21095029824554506	0.3659438219926403	-0.5559663332009258	0.20397764954071254	0.26392699998438285	-0.3883081678279797	0.38355928452204124	0.4343367605803579	-0.19960889513326863	0.4211056443475669	0.4841850343198201	0.061591673056241567	0.3215401611349767	0.3443444403885056	0.2561857617639211	0.18499244094150868	0.29027843339143833	0.3197371980334059	0.19924289084668217	0.321306609633275	0.34182306622632497	0.2432404950025322	0.3762384069905201	0.37905941445509	0.02441340876841533	0.47896272374916604	-0.22409057657007692	-0.045388050317603394	0.5724209846855386	0.04367308593712535	0.048467833251780675	0.4073476879422162	0.2524848110631106	0.1288349582000565	0.34345468837251686	0.31307243662583367	0.11658638147736511	0.3024925704020651	0.32983119778095243	0.08044482524853286	0.35210240362586503	0.3693002647848892
46	0.7666666666666667	0.2921389868837917	0.6212407701754833	0.3035246003520287	0.2963793692628709	0.7535556336874857	0.7096615270539118	0.28450389385308794	0.9533800320770479	1.13308953713691	0.2727913125587308	0.7325620027281984	1.1699340139601777	0.3321737916091245	0.7563321978346618	1.172999003647659	0.27435067961870624	1.003015860409976	1.1830538203978458	0.07409888052985958	0.6376683505430117	0.29250104952881395	0.08979184900566356	0.7692839736739652	0.7030277861410502	0.10601168505892661	0.8843048354305705	1.1260089029233304	0.11739851190782499	0.6946476872956225	1.1429186973485657	0.06849233940860526	0.7373217449842057	1.1541072208866718	0.12789590601819065	0.9618420423182193	1.1697513078881836	0.21320860655702764	0.4572299564700685	-0.30429016753707055	0.2108638147286691	0.3660471428300762	-0.5556198935099977	0.2044230260163024	0.26411065095185454	-0.3880582329773008	0.3835700854721806	0.4343668512798237	-0.19998562321447	0.4245200792404947	0.4892384305508103	0.05762528785858453	0.32241939160408645	0.3434042455561205	0.2512242915371402	0.18522583550778934	0.28528544538711315	0.3155959510424059	0.2012285119106503	0.3144376350248318	0.33482387434264693	0.24551749742229517	0.367251424748069	0.37237744878391366	0.024056836121917963	0.47830765409569925	-0.2240440357363607	-0.04291777420567565	0.5781232952310277	0.042287981126453045	0.03580396451305418	0.39631644152528506	0.25273462157448146	0.11952343804881795	0.34330473332353273	0.31371479391934587	0.1027833532358567	0.295903781463869	0.33070014865634145	0.06361018549569164	0.3556091552380418	0.37326473682255157
47	0.7833333333333333	0.29014331974384655	0.6344810392935593	0.3071291912613982	0.29499689846817745	0.7500475230996404	0.7096075393184084	0.2845102378745301	0.953151555439002	1.1343218423063508	0.27274424852963225	0.7327972098276849	1.1700469197271048	0.33128405465733113	0.7615707072830413	1.1749379874584873	0.2745480173193023	1.0027658183756452	1.1819901291514285	0.07453790955433567	0.6372715371815892	0.2920876629005917	0.0898078035106234	0.7690861352312844	0.7029796479867575	0.10571235965656503	0.8853947597351699	1.1274994124921687	0.11640325237657186	0.6988517580623002	1.1445429485227576	0.06622861745570491	0.7458730169691965	1.158067265394114	0.12797282320248338	0.9616317693017776	1.170521967514077	0.21318224298848198	0.4573166448958344	-0.30324081435440986	0.21102262851739642	0.36498952218698744	-0.5543462842825871	0.205547811499177	0.2644332932135787	-0.38732866830792745	0.3833763784626274	0.4339475434119897	-0.20090353733218144	0.4277619263957475	0.49345011730451166	0.054131328278740024	0.32261991089486014	0.3430000705791391	0.24593084529692966	0.18582361679260145	0.2836087180984994	0.31067226722860763	0.20507239774631947	0.30872549532081967	0.32842797049950173	0.2479833140367132	0.3521290936402564	0.36247506010170594	0.022973764660647	0.4771006065330757	-0.22398806619911277	-0.04072279670743621	0.5815396194351812	0.03995733423099853	0.023205271490996607	0.3916630575894263	0.25262867715133	0.1106565620957697	0.3430712479458709	0.3131920091233808	0.09247542695695565	0.2904932348340273	0.3321796912729239	0.0461062358026138	0.36291591500389037	0.375820288885448
48	0.8	0.2889789050223312	0.6449035285502481	0.311241137146875	0.29321947608111315	0.7453785425616308	0.7090352011243585	0.2846192609741412	0.9527199590689004	1.134996733355393	0.2726852545033807	0.7330825551768367	1.1702110403701271	0.3301375445348865	0.7682495263109874	1.177444962375437	0.2748268245365994	1.002405589479017	1.1806039301525972	0.07534197127881219	0.631722110437753	0.29193373271029827	0.08991307045997501	0.768793269173861	0.7027486515526047	0.10516581959364335	0.8884559874139185	1.1294142260255873	0.11637311882152901	0.7046012764069607	1.1466973695289564	0.06427312031606093	0.753445730841574	1.1613583686646218	0.12801380261604572	0.9609618619475095	1.17173243057363	0.21326818046127521	0.4574460222704637	-0.3019101092977495	0.2119113171712212	0.36209514544885696	-0.5523225445038394	0.20709691348598822	0.26480650333747774	-0.3863354144298537	0.38315813556435835	0.4335458128752967	-0.2021425717810936	0.4313764170130612	0.497566743788172	0.051022063542488	0.3232753287611739	0.34281613611241224	0.24054076926920853	0.1880940125482885	0.2853171445807625	0.30324757749265285	0.21225350662146353	0.2989719776528954	0.3223128494208164	0.2518984004431233	0.3328667400448133	0.3510129886933589	0.021468532452417873	0.4758589452289598	-0.2239846484436856	-0.03962995276923261	0.5838480204964656	0.037603038234163416	0.01206907002106316	0.39657588631955776	0.25249733524816564	0.10173534086678712	0.34280407257034295	0.3118741954176256	0.0843678172485102	0.2906620904209637	0.3345264756325185	0.031770154465741	0.3711567691772285	0.3769066343158855
49	0.8166666666666667	0.289632611225064	0.6505069946573578	0.3160179163812509	0.2919646267137531	0.7419361106280872	0.7084083704167505	0.284762523080043	0.9523550681057557	1.135134142723541	0.27264602792602616	0.7333060090005604	1.17031754139195	0.32930324319236576	0.7732477926759738	1.1793307452486235	0.2750514224839563	1.0021175172193355	1.179545292806983	0.07594349601639386	0.6236782323786649	0.2936315417719434	0.09012911981472871	0.7685535879546826	0.702784036799415	0.10479980832853024	0.8932137678140553	1.130892123732231	0.11676840900714253	0.7090194175959391	1.148321126513946	0.06310751569283837	0.7580803587058752	1.1627757324746015	0.12802024883500235	0.9601950830223364	1.1728978898132265	0.21375752575965107	0.45763778356038215	-0.30095393119893415	0.21405679586868387	0.3582249010086045	-0.5505882368256015	0.20856104757543145	0.2650066250376787	-0.38554740335198406	0.38312651312830326	0.43361298649133906	-0.20314141734484395	0.4355274034836717	0.5019473443573947	0.04810741554328503	0.3249017335014094	0.3413499527369083	0.23456130111097384	0.19328207842315956	0.2874519265144526	0.2916187239332151	0.2214163100873547	0.28141957153661823	0.31404449466935414	0.2560504943033188	0.3133825864628891	0.33988586251282304	0.020298258388587533	0.47537857139670164	-0.22415421251519468	-0.0399915678019835	0.5879544568407095	0.036175707986098656	0.00286717896651966	0.4083549107030687	0.25281671303131675	0.09156734680453608	0.3424362304488424	0.3100626826193921	0.0750258079087917	0.2986077819454406	0.3378975671964289	0.021537146516114415	0.38014726975313257	0.3771436644952706
50	0.8333333333333334	0.29195011599071385	0.6523005463778766	0.32114635285732657	0.2915533329953355	0.7407451991021158	0.7077987005463566	0.2848428233132475	0.9521755899936772	1.1350666164474499	0.27263602390307695	0.7334379190048829	1.1703279383321068	0.3289954017837649	0.7752118384463709	1.180084886665888	0.2751610539583492	1.001978337932158	1.1791078795117347	0.07579940816586782	0.6182082906611374	0.2979630400671908	0.09039118587008099	0.7686685691056425	0.7033490418465532	0.1051529078870476	0.8969157334358231	1.1313799070788684	0.1170694965735194	0.7107625275603734	1.148925043168581	0.06275507267081308	0.7595307694756891	1.162565693668009	0.12801312008378316	0.9596780510482112	1.173542165291832	0.2148650931382674	0.45793931390796466	-0.3006564631584223	0.21754477875684908	0.35537726493158567	-0.550000331531096	0.20977774000275995	0.26495119818922086	-0.3851212380200142	0.3836370834267581	0.4348824545204829	-0.20366513780783196	0.439621718804142	0.5055076752549279	0.04479765360489605	0.32712889371355497	0.3375873227695666	0.22749581354813928	0.20227981605405884	0.28384502853296334	0.2759993142890442	0.2306789677604913	0.2586201341488875	0.3010006349119396	0.2592855277309082	0.2962958625882947	0.3303911887943499	0.019924643592384376	0.47582892380433955	-0.22455585960206076	-0.041457050517900385	0.5950879900653024	0.0357493623378637	-0.004535864100832269	0.4223716264745002	0.25364442121268366	0.07966459655016316	0.34193381201001116	0.3091674743424512	0.0616052794819884	0.3130171479504435	0.342572203829132	0.01227684056794775	0.3930016541930596	0.37711914584632433
